<?xml version="1.0" encoding="UTF-8" standalone="no"?><svg xmlns="http://www.w3.org/2000/svg" xmlns:xlink="http://www.w3.org/1999/xlink" contentStyleType="text/css" height="321px" preserveAspectRatio="none" style="width:1144px;height:321px;background:#FFFFFF;" version="1.1" viewBox="0 0 1144 321" width="1144px" zoomAndPan="magnify"><defs/><g><!--MD5=[f98759e4eb96d6a1d3ce0405f8c1a67e]
entity pro--><g id="elem_pro"><rect fill="#F1F1F1" height="62.9766" rx="2.5" ry="2.5" style="stroke:#181818;stroke-width:0.5;" width="141" x="479" y="7"/><rect fill="#F1F1F1" height="10" style="stroke:#181818;stroke-width:0.5;" width="15" x="600" y="12"/><rect fill="#F1F1F1" height="2" style="stroke:#181818;stroke-width:0.5;" width="4" x="598" y="14"/><rect fill="#F1F1F1" height="2" style="stroke:#181818;stroke-width:0.5;" width="4" x="598" y="18"/><text fill="#000000" font-family="sans-serif" font-size="14" font-style="italic" lengthAdjust="spacing" textLength="101" x="494" y="40.5352">«Environment»</text><text fill="#000000" font-family="sans-serif" font-size="14" lengthAdjust="spacing" textLength="28" x="530.5" y="57.0234">PRO</text></g><!--MD5=[8fb4f905147ca31c25b1e567ee08a5b2]
entity cdn--><g id="elem_cdn"><rect fill="#F1F1F1" height="62.9766" rx="2.5" ry="2.5" style="stroke:#181818;stroke-width:0.5;" width="90" x="224.5" y="130"/><rect fill="#F1F1F1" height="10" style="stroke:#181818;stroke-width:0.5;" width="15" x="294.5" y="135"/><rect fill="#F1F1F1" height="2" style="stroke:#181818;stroke-width:0.5;" width="4" x="292.5" y="137"/><rect fill="#F1F1F1" height="2" style="stroke:#181818;stroke-width:0.5;" width="4" x="292.5" y="141"/><text fill="#000000" font-family="sans-serif" font-size="14" font-style="italic" lengthAdjust="spacing" textLength="50" x="239.5" y="163.5352">«Stack»</text><text fill="#000000" font-family="sans-serif" font-size="14" lengthAdjust="spacing" textLength="30" x="249.5" y="180.0234">CDN</text></g><!--MD5=[f017e3bd359d78c0ae661d83e1b006ab]
entity mails--><g id="elem_mails"><rect fill="#F1F1F1" height="62.9766" rx="2.5" ry="2.5" style="stroke:#181818;stroke-width:0.5;" width="90" x="504.5" y="130"/><rect fill="#F1F1F1" height="10" style="stroke:#181818;stroke-width:0.5;" width="15" x="574.5" y="135"/><rect fill="#F1F1F1" height="2" style="stroke:#181818;stroke-width:0.5;" width="4" x="572.5" y="137"/><rect fill="#F1F1F1" height="2" style="stroke:#181818;stroke-width:0.5;" width="4" x="572.5" y="141"/><text fill="#000000" font-family="sans-serif" font-size="14" font-style="italic" lengthAdjust="spacing" textLength="50" x="519.5" y="163.5352">«Stack»</text><text fill="#000000" font-family="sans-serif" font-size="14" lengthAdjust="spacing" textLength="36" x="526.5" y="180.0234">mails</text></g><!--MD5=[30e382dc68ab04d49d3ef5ad3266e605]
entity dns--><g id="elem_dns"><rect fill="#F1F1F1" height="62.9766" rx="2.5" ry="2.5" style="stroke:#181818;stroke-width:0.5;" width="135" x="812" y="130"/><rect fill="#F1F1F1" height="10" style="stroke:#181818;stroke-width:0.5;" width="15" x="927" y="135"/><rect fill="#F1F1F1" height="2" style="stroke:#181818;stroke-width:0.5;" width="4" x="925" y="137"/><rect fill="#F1F1F1" height="2" style="stroke:#181818;stroke-width:0.5;" width="4" x="925" y="141"/><text fill="#000000" font-family="sans-serif" font-size="14" font-style="italic" lengthAdjust="spacing" textLength="50" x="849.5" y="163.5352">«Stack»</text><text fill="#000000" font-family="sans-serif" font-size="14" lengthAdjust="spacing" textLength="95" x="827" y="180.0234">hosted_zones</text></g><!--MD5=[41cc97cca0fc40f6265874b6ddd0fc3b]
entity cert--><g id="elem_cert"><rect fill="#F1F1F1" height="62.9766" rx="2.5" ry="2.5" style="stroke:#181818;stroke-width:0.5;" width="175" x="7" y="253"/><rect fill="#F1F1F1" height="10" style="stroke:#181818;stroke-width:0.5;" width="15" x="162" y="258"/><rect fill="#F1F1F1" height="2" style="stroke:#181818;stroke-width:0.5;" width="4" x="160" y="260"/><rect fill="#F1F1F1" height="2" style="stroke:#181818;stroke-width:0.5;" width="4" x="160" y="264"/><text fill="#000000" font-family="sans-serif" font-size="14" font-style="italic" lengthAdjust="spacing" textLength="65" x="57" y="286.5352">«Module»</text><text fill="#000000" font-family="sans-serif" font-size="14" lengthAdjust="spacing" textLength="135" x="22" y="303.0234">aws_acm_certificate</text></g><!--MD5=[a33070c51b3a7439b1497cd00aaa8caa]
entity redirect--><g id="elem_redirect"><rect fill="#F1F1F1" height="62.9766" rx="2.5" ry="2.5" style="stroke:#181818;stroke-width:0.5;" width="105" x="217" y="253"/><rect fill="#F1F1F1" height="10" style="stroke:#181818;stroke-width:0.5;" width="15" x="302" y="258"/><rect fill="#F1F1F1" height="2" style="stroke:#181818;stroke-width:0.5;" width="4" x="300" y="260"/><rect fill="#F1F1F1" height="2" style="stroke:#181818;stroke-width:0.5;" width="4" x="300" y="264"/><text fill="#000000" font-family="sans-serif" font-size="14" font-style="italic" lengthAdjust="spacing" textLength="65" x="232" y="286.5352">«Module»</text><text fill="#000000" font-family="sans-serif" font-size="14" lengthAdjust="spacing" textLength="53" x="238" y="303.0234">redirect</text></g><!--MD5=[24ccd555c0247d9c6deb4d9d6b9bd608]
entity ses1--><g id="elem_ses1"><rect fill="#F1F1F1" height="62.9766" rx="2.5" ry="2.5" style="stroke:#181818;stroke-width:0.5;" width="105" x="357" y="253"/><rect fill="#F1F1F1" height="10" style="stroke:#181818;stroke-width:0.5;" width="15" x="442" y="258"/><rect fill="#F1F1F1" height="2" style="stroke:#181818;stroke-width:0.5;" width="4" x="440" y="260"/><rect fill="#F1F1F1" height="2" style="stroke:#181818;stroke-width:0.5;" width="4" x="440" y="264"/><text fill="#000000" font-family="sans-serif" font-size="14" font-style="italic" lengthAdjust="spacing" textLength="65" x="372" y="286.5352">«Module»</text><text fill="#000000" font-family="sans-serif" font-size="14" lengthAdjust="spacing" textLength="37" x="386" y="303.0234">SES 1</text></g><!--MD5=[c7b9f8c1bb7581127f4edc84c3f0b482]
entity ses2--><g id="elem_ses2"><rect fill="#F1F1F1" height="62.9766" rx="2.5" ry="2.5" style="stroke:#181818;stroke-width:0.5;" width="105" x="497" y="253"/><rect fill="#F1F1F1" height="10" style="stroke:#181818;stroke-width:0.5;" width="15" x="582" y="258"/><rect fill="#F1F1F1" height="2" style="stroke:#181818;stroke-width:0.5;" width="4" x="580" y="260"/><rect fill="#F1F1F1" height="2" style="stroke:#181818;stroke-width:0.5;" width="4" x="580" y="264"/><text fill="#000000" font-family="sans-serif" font-size="14" font-style="italic" lengthAdjust="spacing" textLength="65" x="512" y="286.5352">«Module»</text><text fill="#000000" font-family="sans-serif" font-size="14" lengthAdjust="spacing" textLength="37" x="526" y="303.0234">SES 2</text></g><!--MD5=[d112aecbd7ccc75573a6ee2503a173b3]
entity email--><g id="elem_email"><rect fill="#F1F1F1" height="62.9766" rx="2.5" ry="2.5" style="stroke:#181818;stroke-width:0.5;" width="132" x="637.5" y="253"/><rect fill="#F1F1F1" height="10" style="stroke:#181818;stroke-width:0.5;" width="15" x="749.5" y="258"/><rect fill="#F1F1F1" height="2" style="stroke:#181818;stroke-width:0.5;" width="4" x="747.5" y="260"/><rect fill="#F1F1F1" height="2" style="stroke:#181818;stroke-width:0.5;" width="4" x="747.5" y="264"/><text fill="#000000" font-family="sans-serif" font-size="14" font-style="italic" lengthAdjust="spacing" textLength="65" x="666" y="286.5352">«Module»</text><text fill="#000000" font-family="sans-serif" font-size="14" lengthAdjust="spacing" textLength="92" x="652.5" y="303.0234">Email Identity</text></g><!--MD5=[079185c0f47d1c5bc01c349238b78bee]
entity zone1--><g id="elem_zone1"><rect fill="#F1F1F1" height="62.9766" rx="2.5" ry="2.5" style="stroke:#181818;stroke-width:0.5;" width="149" x="805" y="253"/><rect fill="#F1F1F1" height="10" style="stroke:#181818;stroke-width:0.5;" width="15" x="934" y="258"/><rect fill="#F1F1F1" height="2" style="stroke:#181818;stroke-width:0.5;" width="4" x="932" y="260"/><rect fill="#F1F1F1" height="2" style="stroke:#181818;stroke-width:0.5;" width="4" x="932" y="264"/><text fill="#000000" font-family="sans-serif" font-size="14" font-style="italic" lengthAdjust="spacing" textLength="65" x="842" y="286.5352">«Module»</text><text fill="#000000" font-family="sans-serif" font-size="14" lengthAdjust="spacing" textLength="109" x="820" y="303.0234">hosting_zone_1</text></g><!--MD5=[2696dcc3d7c74d406e74719ea41fd130]
entity zone2--><g id="elem_zone2"><rect fill="#F1F1F1" height="62.9766" rx="2.5" ry="2.5" style="stroke:#181818;stroke-width:0.5;" width="149" x="989" y="253"/><rect fill="#F1F1F1" height="10" style="stroke:#181818;stroke-width:0.5;" width="15" x="1118" y="258"/><rect fill="#F1F1F1" height="2" style="stroke:#181818;stroke-width:0.5;" width="4" x="1116" y="260"/><rect fill="#F1F1F1" height="2" style="stroke:#181818;stroke-width:0.5;" width="4" x="1116" y="264"/><text fill="#000000" font-family="sans-serif" font-size="14" font-style="italic" lengthAdjust="spacing" textLength="65" x="1026" y="286.5352">«Module»</text><text fill="#000000" font-family="sans-serif" font-size="14" lengthAdjust="spacing" textLength="109" x="1004" y="303.0234">hosting_zone_2</text></g><!--MD5=[596468086e68f61b5dad784f4cb1cf63]
link pro to cdn--><g id="link_pro_cdn"><path d="M478.84,70.03 C429.14,91.51 363.83,119.74 319.46,138.91 " fill="none" id="pro-to-cdn" style="stroke:#181818;stroke-width:1.0;"/><polygon fill="#181818" points="314.7,140.97,324.5481,141.0902,319.2935,138.9952,321.3885,133.7406,314.7,140.97" style="stroke:#181818;stroke-width:1.0;"/></g><!--MD5=[1a5a9148150694397276d3833ef1607a]
link cdn to cert--><g id="link_cdn_cert"><path d="M225.34,193.03 C200.26,210.37 168.83,232.11 143.06,249.92 " fill="none" id="cdn-to-cert" style="stroke:#181818;stroke-width:1.0;"/><polygon fill="#181818" points="138.65,252.98,148.3282,251.1546,142.7635,250.1377,143.7805,244.573,138.65,252.98" style="stroke:#181818;stroke-width:1.0;"/></g><!--MD5=[5d3939893a42967e9cc0a9e52881fb42]
link cdn to redirect--><g id="link_cdn_redirect"><path d="M269.5,193.03 C269.5,209.66 269.5,230.32 269.5,247.7 " fill="none" id="cdn-to-redirect" style="stroke:#181818;stroke-width:1.0;"/><polygon fill="#181818" points="269.5,252.98,273.5,243.98,269.5,247.98,265.5,243.98,269.5,252.98" style="stroke:#181818;stroke-width:1.0;"/></g><!--MD5=[fbb9c3a427410be6da99ce7a7040e12d]
link pro to dns--><g id="link_pro_dns"><path d="M620.29,65.46 C675.35,85.65 751.46,113.55 806.96,133.9 " fill="none" id="pro-to-dns" style="stroke:#181818;stroke-width:1.0;"/><polygon fill="#181818" points="811.92,135.72,804.8422,128.8713,807.2244,134.0021,802.0936,136.3843,811.92,135.72" style="stroke:#181818;stroke-width:1.0;"/></g><!--MD5=[a6e1fed94b721f36180ca2d4c198bfdd]
link dns to zone1--><g id="link_dns_zone1"><path d="M879.5,193.03 C879.5,209.66 879.5,230.32 879.5,247.7 " fill="none" id="dns-to-zone1" style="stroke:#181818;stroke-width:1.0;"/><polygon fill="#181818" points="879.5,252.98,883.5,243.98,879.5,247.98,875.5,243.98,879.5,252.98" style="stroke:#181818;stroke-width:1.0;"/></g><!--MD5=[f494149bc6b9424ddb659facd8e47303]
link dns to zone2--><g id="link_dns_zone2"><path d="M925.93,193.03 C952.41,210.44 985.62,232.29 1012.78,250.15 " fill="none" id="dns-to-zone2" style="stroke:#181818;stroke-width:1.0;"/><polygon fill="#181818" points="1017.08,252.98,1011.7774,244.6804,1012.9088,250.223,1007.3662,251.3544,1017.08,252.98" style="stroke:#181818;stroke-width:1.0;"/></g><!--MD5=[542e7f4aa5c68ea0cf8d6d6e1c416d60]
link pro to mails--><g id="link_pro_mails"><path d="M549.5,70.03 C549.5,86.66 549.5,107.32 549.5,124.7 " fill="none" id="pro-to-mails" style="stroke:#181818;stroke-width:1.0;"/><polygon fill="#181818" points="549.5,129.98,553.5,120.98,549.5,124.98,545.5,120.98,549.5,129.98" style="stroke:#181818;stroke-width:1.0;"/></g><!--MD5=[1cfce2aaba948b337bc7cc4e0b075e68]
link mails to ses1--><g id="link_mails_ses1"><path d="M514.17,193.03 C494.19,210.3 469.17,231.93 448.6,249.7 " fill="none" id="mails-to-ses1" style="stroke:#181818;stroke-width:1.0;"/><polygon fill="#181818" points="444.82,252.98,454.2512,250.1423,448.6102,249.719,449.0336,244.078,444.82,252.98" style="stroke:#181818;stroke-width:1.0;"/></g><!--MD5=[199826850861a368c9e17e9f9ebfe9ac]
link mails to ses2--><g id="link_mails_ses2"><path d="M549.5,193.03 C549.5,209.66 549.5,230.32 549.5,247.7 " fill="none" id="mails-to-ses2" style="stroke:#181818;stroke-width:1.0;"/><polygon fill="#181818" points="549.5,252.98,553.5,243.98,549.5,247.98,545.5,243.98,549.5,252.98" style="stroke:#181818;stroke-width:1.0;"/></g><!--MD5=[439eeaee465fc5c0fca26cd473b72cf2]
link mails to email--><g id="link_mails_email"><path d="M588.36,193.03 C610.34,210.3 637.86,231.93 660.49,249.7 " fill="none" id="mails-to-email" style="stroke:#181818;stroke-width:1.0;"/><polygon fill="#181818" points="664.65,252.98,660.043,244.2751,660.7179,249.8915,655.1015,250.5664,664.65,252.98" style="stroke:#181818;stroke-width:1.0;"/></g><!--MD5=[cd50ed2da0db894b81e16ceb0f7945f5]
@startuml

component [PRO] <<Environment>> as pro

component [CDN] <<Stack>> as cdn
component [mails] <<Stack>> as mails
component [hosted_zones] <<Stack>> as dns

component [aws_acm_certificate] <<Module>> as cert
component [redirect] <<Module>> as redirect
component [SES 1] <<Module>> as ses1
component [SES 2] <<Module>> as ses2
component [Email Identity] <<Module>> as email
component [hosting_zone_1] <<Module>> as zone1
component [hosting_zone_2] <<Module>> as zone2

pro - -> cdn
cdn - -> cert
cdn - -> redirect
pro - -> dns
dns - -> zone1
dns - -> zone2

pro - -> mails
mails - -> ses1
mails - -> ses2
mails - -> email
@enduml

PlantUML version 1.2022.4(Sat Apr 09 15:29:17 CEST 2022)
(GPL source distribution)
Java Runtime: OpenJDK Runtime Environment
JVM: OpenJDK 64-Bit Server VM
Default Encoding: UTF-8
Language: en
Country: PL
--></g></svg>
