<?xml version="1.0" encoding="UTF-8" standalone="no"?><svg xmlns="http://www.w3.org/2000/svg" xmlns:xlink="http://www.w3.org/1999/xlink" contentStyleType="text/css" height="444px" preserveAspectRatio="none" style="width:1154px;height:444px;background:#FFFFFF;" version="1.1" viewBox="0 0 1154 444" width="1154px" zoomAndPan="magnify"><defs/><g><!--MD5=[0aac872f208ab6f5f7887aae079fb447]
entity c1--><g id="elem_c1"><rect fill="#F1F1F1" height="62.9766" rx="2.5" ry="2.5" style="stroke:#181818;stroke-width:0.5;" width="129" x="592" y="130"/><rect fill="#F1F1F1" height="10" style="stroke:#181818;stroke-width:0.5;" width="15" x="701" y="135"/><rect fill="#F1F1F1" height="2" style="stroke:#181818;stroke-width:0.5;" width="4" x="699" y="137"/><rect fill="#F1F1F1" height="2" style="stroke:#181818;stroke-width:0.5;" width="4" x="699" y="141"/><text fill="#000000" font-family="sans-serif" font-size="14" font-style="italic" lengthAdjust="spacing" textLength="62" x="620.5" y="163.5352">«Region»</text><text fill="#000000" font-family="sans-serif" font-size="14" lengthAdjust="spacing" textLength="89" x="607" y="180.0234">eu-central-1</text></g><!--MD5=[e5f8c6b8840b805c75264b95a6f5cc6b]
entity e1--><g id="elem_e1"><rect fill="#F1F1F1" height="62.9766" rx="2.5" ry="2.5" style="stroke:#181818;stroke-width:0.5;" width="113" x="851" y="130"/><rect fill="#F1F1F1" height="10" style="stroke:#181818;stroke-width:0.5;" width="15" x="944" y="135"/><rect fill="#F1F1F1" height="2" style="stroke:#181818;stroke-width:0.5;" width="4" x="942" y="137"/><rect fill="#F1F1F1" height="2" style="stroke:#181818;stroke-width:0.5;" width="4" x="942" y="141"/><text fill="#000000" font-family="sans-serif" font-size="14" font-style="italic" lengthAdjust="spacing" textLength="62" x="871.5" y="163.5352">«Region»</text><text fill="#000000" font-family="sans-serif" font-size="14" lengthAdjust="spacing" textLength="73" x="866" y="180.0234">eu-west-1</text></g><!--MD5=[f98759e4eb96d6a1d3ce0405f8c1a67e]
entity pro--><g id="elem_pro"><rect fill="#F1F1F1" height="62.9766" rx="2.5" ry="2.5" style="stroke:#181818;stroke-width:0.5;" width="141" x="664" y="7"/><rect fill="#F1F1F1" height="10" style="stroke:#181818;stroke-width:0.5;" width="15" x="785" y="12"/><rect fill="#F1F1F1" height="2" style="stroke:#181818;stroke-width:0.5;" width="4" x="783" y="14"/><rect fill="#F1F1F1" height="2" style="stroke:#181818;stroke-width:0.5;" width="4" x="783" y="18"/><text fill="#000000" font-family="sans-serif" font-size="14" font-style="italic" lengthAdjust="spacing" textLength="101" x="679" y="40.5352">«Environment»</text><text fill="#000000" font-family="sans-serif" font-size="14" lengthAdjust="spacing" textLength="28" x="715.5" y="57.0234">PRO</text></g><!--MD5=[8fb4f905147ca31c25b1e567ee08a5b2]
entity cdn--><g id="elem_cdn"><rect fill="#F1F1F1" height="62.9766" rx="2.5" ry="2.5" style="stroke:#181818;stroke-width:0.5;" width="90" x="323.5" y="253"/><rect fill="#F1F1F1" height="10" style="stroke:#181818;stroke-width:0.5;" width="15" x="393.5" y="258"/><rect fill="#F1F1F1" height="2" style="stroke:#181818;stroke-width:0.5;" width="4" x="391.5" y="260"/><rect fill="#F1F1F1" height="2" style="stroke:#181818;stroke-width:0.5;" width="4" x="391.5" y="264"/><text fill="#000000" font-family="sans-serif" font-size="14" font-style="italic" lengthAdjust="spacing" textLength="50" x="338.5" y="286.5352">«Stack»</text><text fill="#000000" font-family="sans-serif" font-size="14" lengthAdjust="spacing" textLength="30" x="348.5" y="303.0234">CDN</text></g><!--MD5=[f017e3bd359d78c0ae661d83e1b006ab]
entity mails--><g id="elem_mails"><rect fill="#F1F1F1" height="62.9766" rx="2.5" ry="2.5" style="stroke:#181818;stroke-width:0.5;" width="90" x="910.5" y="253"/><rect fill="#F1F1F1" height="10" style="stroke:#181818;stroke-width:0.5;" width="15" x="980.5" y="258"/><rect fill="#F1F1F1" height="2" style="stroke:#181818;stroke-width:0.5;" width="4" x="978.5" y="260"/><rect fill="#F1F1F1" height="2" style="stroke:#181818;stroke-width:0.5;" width="4" x="978.5" y="264"/><text fill="#000000" font-family="sans-serif" font-size="14" font-style="italic" lengthAdjust="spacing" textLength="50" x="925.5" y="286.5352">«Stack»</text><text fill="#000000" font-family="sans-serif" font-size="14" lengthAdjust="spacing" textLength="36" x="932.5" y="303.0234">mails</text></g><!--MD5=[30e382dc68ab04d49d3ef5ad3266e605]
entity dns--><g id="elem_dns"><rect fill="#F1F1F1" height="62.9766" rx="2.5" ry="2.5" style="stroke:#181818;stroke-width:0.5;" width="140" x="586.5" y="253"/><rect fill="#F1F1F1" height="10" style="stroke:#181818;stroke-width:0.5;" width="15" x="706.5" y="258"/><rect fill="#F1F1F1" height="2" style="stroke:#181818;stroke-width:0.5;" width="4" x="704.5" y="260"/><rect fill="#F1F1F1" height="2" style="stroke:#181818;stroke-width:0.5;" width="4" x="704.5" y="264"/><text fill="#000000" font-family="sans-serif" font-size="14" font-style="italic" lengthAdjust="spacing" textLength="50" x="626.5" y="286.5352">«Stack»</text><text fill="#000000" font-family="sans-serif" font-size="14" lengthAdjust="spacing" textLength="100" x="601.5" y="303.0234">hosting_zones</text></g><!--MD5=[41cc97cca0fc40f6265874b6ddd0fc3b]
entity cert--><g id="elem_cert"><rect fill="#F1F1F1" height="62.9766" rx="2.5" ry="2.5" style="stroke:#181818;stroke-width:0.5;" width="175" x="7" y="376"/><rect fill="#F1F1F1" height="10" style="stroke:#181818;stroke-width:0.5;" width="15" x="162" y="381"/><rect fill="#F1F1F1" height="2" style="stroke:#181818;stroke-width:0.5;" width="4" x="160" y="383"/><rect fill="#F1F1F1" height="2" style="stroke:#181818;stroke-width:0.5;" width="4" x="160" y="387"/><text fill="#000000" font-family="sans-serif" font-size="14" font-style="italic" lengthAdjust="spacing" textLength="65" x="57" y="409.5352">«Module»</text><text fill="#000000" font-family="sans-serif" font-size="14" lengthAdjust="spacing" textLength="135" x="22" y="426.0234">aws_acm_certificate</text></g><!--MD5=[b165ca7cce796f881c879adda4a6bef9]
entity s3--><g id="elem_s3"><rect fill="#F1F1F1" height="62.9766" rx="2.5" ry="2.5" style="stroke:#181818;stroke-width:0.5;" width="142" x="217.5" y="376"/><rect fill="#F1F1F1" height="10" style="stroke:#181818;stroke-width:0.5;" width="15" x="339.5" y="381"/><rect fill="#F1F1F1" height="2" style="stroke:#181818;stroke-width:0.5;" width="4" x="337.5" y="383"/><rect fill="#F1F1F1" height="2" style="stroke:#181818;stroke-width:0.5;" width="4" x="337.5" y="387"/><text fill="#000000" font-family="sans-serif" font-size="14" font-style="italic" lengthAdjust="spacing" textLength="65" x="251" y="409.5352">«Module»</text><text fill="#000000" font-family="sans-serif" font-size="14" lengthAdjust="spacing" textLength="102" x="232.5" y="426.0234">aws_s3_bucket</text></g><!--MD5=[a33070c51b3a7439b1497cd00aaa8caa]
entity redirect--><g id="elem_redirect"><rect fill="#F1F1F1" height="62.9766" rx="2.5" ry="2.5" style="stroke:#181818;stroke-width:0.5;" width="105" x="395" y="376"/><rect fill="#F1F1F1" height="10" style="stroke:#181818;stroke-width:0.5;" width="15" x="480" y="381"/><rect fill="#F1F1F1" height="2" style="stroke:#181818;stroke-width:0.5;" width="4" x="478" y="383"/><rect fill="#F1F1F1" height="2" style="stroke:#181818;stroke-width:0.5;" width="4" x="478" y="387"/><text fill="#000000" font-family="sans-serif" font-size="14" font-style="italic" lengthAdjust="spacing" textLength="65" x="410" y="409.5352">«Module»</text><text fill="#000000" font-family="sans-serif" font-size="14" lengthAdjust="spacing" textLength="53" x="416" y="426.0234">redirect</text></g><!--MD5=[c6e052fbafbdad81e4a7f36c0e098467]
entity ses--><g id="elem_ses"><rect fill="#F1F1F1" height="62.9766" rx="2.5" ry="2.5" style="stroke:#181818;stroke-width:0.5;" width="105" x="903" y="376"/><rect fill="#F1F1F1" height="10" style="stroke:#181818;stroke-width:0.5;" width="15" x="988" y="381"/><rect fill="#F1F1F1" height="2" style="stroke:#181818;stroke-width:0.5;" width="4" x="986" y="383"/><rect fill="#F1F1F1" height="2" style="stroke:#181818;stroke-width:0.5;" width="4" x="986" y="387"/><text fill="#000000" font-family="sans-serif" font-size="14" font-style="italic" lengthAdjust="spacing" textLength="65" x="918" y="409.5352">«Module»</text><text fill="#000000" font-family="sans-serif" font-size="14" lengthAdjust="spacing" textLength="24" x="938.5" y="426.0234">SES</text></g><!--MD5=[6c3e24af2109694c421ba7abf31884d1]
entity workmail--><g id="elem_workmail"><rect fill="#F1F1F1" height="62.9766" rx="2.5" ry="2.5" style="stroke:#181818;stroke-width:0.5;" width="105" x="1043" y="376"/><rect fill="#F1F1F1" height="10" style="stroke:#181818;stroke-width:0.5;" width="15" x="1128" y="381"/><rect fill="#F1F1F1" height="2" style="stroke:#181818;stroke-width:0.5;" width="4" x="1126" y="383"/><rect fill="#F1F1F1" height="2" style="stroke:#181818;stroke-width:0.5;" width="4" x="1126" y="387"/><text fill="#000000" font-family="sans-serif" font-size="14" font-style="italic" lengthAdjust="spacing" textLength="65" x="1058" y="409.5352">«Module»</text><text fill="#000000" font-family="sans-serif" font-size="14" lengthAdjust="spacing" textLength="64" x="1058.5" y="426.0234">Workmail</text></g><!--MD5=[079185c0f47d1c5bc01c349238b78bee]
entity zone1--><g id="elem_zone1"><rect fill="#F1F1F1" height="62.9766" rx="2.5" ry="2.5" style="stroke:#181818;stroke-width:0.5;" width="149" x="535" y="376"/><rect fill="#F1F1F1" height="10" style="stroke:#181818;stroke-width:0.5;" width="15" x="664" y="381"/><rect fill="#F1F1F1" height="2" style="stroke:#181818;stroke-width:0.5;" width="4" x="662" y="383"/><rect fill="#F1F1F1" height="2" style="stroke:#181818;stroke-width:0.5;" width="4" x="662" y="387"/><text fill="#000000" font-family="sans-serif" font-size="14" font-style="italic" lengthAdjust="spacing" textLength="65" x="572" y="409.5352">«Module»</text><text fill="#000000" font-family="sans-serif" font-size="14" lengthAdjust="spacing" textLength="109" x="550" y="426.0234">hosting_zone_1</text></g><!--MD5=[2696dcc3d7c74d406e74719ea41fd130]
entity zone2--><g id="elem_zone2"><rect fill="#F1F1F1" height="62.9766" rx="2.5" ry="2.5" style="stroke:#181818;stroke-width:0.5;" width="149" x="719" y="376"/><rect fill="#F1F1F1" height="10" style="stroke:#181818;stroke-width:0.5;" width="15" x="848" y="381"/><rect fill="#F1F1F1" height="2" style="stroke:#181818;stroke-width:0.5;" width="4" x="846" y="383"/><rect fill="#F1F1F1" height="2" style="stroke:#181818;stroke-width:0.5;" width="4" x="846" y="387"/><text fill="#000000" font-family="sans-serif" font-size="14" font-style="italic" lengthAdjust="spacing" textLength="65" x="756" y="409.5352">«Module»</text><text fill="#000000" font-family="sans-serif" font-size="14" lengthAdjust="spacing" textLength="109" x="734" y="426.0234">hosting_zone_2</text></g><!--MD5=[d3af5f8fb84969ffdd390cd4e62f5b79]
link pro to c1--><g id="link_pro_c1"><path d="M714.82,70.03 C703.92,86.94 690.32,108.03 679,125.59 " fill="none" id="pro-to-c1" style="stroke:#181818;stroke-width:1.0;"/><polygon fill="#181818" points="676.18,129.98,684.4032,124.5597,678.8773,125.7699,677.6671,120.2441,676.18,129.98" style="stroke:#181818;stroke-width:1.0;"/></g><!--MD5=[b2bc65399e984692f4a0b04fa2031aa4]
link c1 to cdn--><g id="link_c1_cdn"><path d="M591.87,189.65 C539.44,211.68 466.59,242.29 418.53,262.48 " fill="none" id="c1-to-cdn" style="stroke:#181818;stroke-width:1.0;"/><polygon fill="#181818" points="413.67,264.52,423.5169,264.714,418.2782,262.5797,420.4125,257.3409,413.67,264.52" style="stroke:#181818;stroke-width:1.0;"/></g><!--MD5=[1a5a9148150694397276d3833ef1607a]
link cdn to cert--><g id="link_cdn_cert"><path d="M323.25,305.48 C281.21,324.05 217.84,352.03 168.45,373.84 " fill="none" id="cdn-to-cert" style="stroke:#181818;stroke-width:1.0;"/><polygon fill="#181818" points="163.72,375.93,173.5689,375.9357,168.2902,373.902,170.324,368.6233,163.72,375.93" style="stroke:#181818;stroke-width:1.0;"/></g><!--MD5=[c2e49395b2702fc3c3a43a79eb913f06]
link cdn to s3--><g id="link_cdn_s3"><path d="M348.31,316.03 C337.13,332.94 323.19,354.03 311.58,371.59 " fill="none" id="cdn-to-s3" style="stroke:#181818;stroke-width:1.0;"/><polygon fill="#181818" points="308.68,375.98,316.9796,370.6774,311.437,371.8088,310.3056,366.2662,308.68,375.98" style="stroke:#181818;stroke-width:1.0;"/></g><!--MD5=[5d3939893a42967e9cc0a9e52881fb42]
link cdn to redirect--><g id="link_cdn_redirect"><path d="M388.44,316.03 C399.48,332.94 413.24,354.03 424.71,371.59 " fill="none" id="cdn-to-redirect" style="stroke:#181818;stroke-width:1.0;"/><polygon fill="#181818" points="427.57,375.98,425.9828,366.2599,424.8295,371.7979,419.2915,370.6446,427.57,375.98" style="stroke:#181818;stroke-width:1.0;"/></g><!--MD5=[0e2284d100eed35ee14bf64b997907ee]
link c1 to dns--><g id="link_c1_dns"><path d="M656.5,193.03 C656.5,209.66 656.5,230.32 656.5,247.7 " fill="none" id="c1-to-dns" style="stroke:#181818;stroke-width:1.0;"/><polygon fill="#181818" points="656.5,252.98,660.5,243.98,656.5,247.98,652.5,243.98,656.5,252.98" style="stroke:#181818;stroke-width:1.0;"/></g><!--MD5=[a6e1fed94b721f36180ca2d4c198bfdd]
link dns to zone1--><g id="link_dns_zone1"><path d="M644.64,316.03 C638.13,332.8 630.02,353.67 623.23,371.15 " fill="none" id="dns-to-zone1" style="stroke:#181818;stroke-width:1.0;"/><polygon fill="#181818" points="621.36,375.98,628.3541,369.0459,623.175,371.3211,620.8998,366.1419,621.36,375.98" style="stroke:#181818;stroke-width:1.0;"/></g><!--MD5=[f494149bc6b9424ddb659facd8e47303]
link dns to zone2--><g id="link_dns_zone2"><path d="M691.07,316.03 C710.54,333.23 734.9,354.75 754.98,372.48 " fill="none" id="dns-to-zone2" style="stroke:#181818;stroke-width:1.0;"/><polygon fill="#181818" points="758.94,375.98,754.8368,367.0266,755.1904,372.6724,749.5446,373.0259,758.94,375.98" style="stroke:#181818;stroke-width:1.0;"/></g><!--MD5=[d7b12c4a5cf7cea7067954448f16379a]
link pro to e1--><g id="link_pro_e1"><path d="M778.16,70.03 C802.95,87.37 834.02,109.11 859.5,126.92 " fill="none" id="pro-to-e1" style="stroke:#181818;stroke-width:1.0;"/><polygon fill="#181818" points="863.86,129.98,858.7768,121.5443,859.7625,127.1146,854.1922,128.1003,863.86,129.98" style="stroke:#181818;stroke-width:1.0;"/></g><!--MD5=[e6845761879ce70c7866d96179549ef2]
link e1 to mails--><g id="link_e1_mails"><path d="M919.61,193.03 C926.26,209.8 934.54,230.67 941.47,248.15 " fill="none" id="e1-to-mails" style="stroke:#181818;stroke-width:1.0;"/><polygon fill="#181818" points="943.39,252.98,943.7875,243.1392,941.5454,248.3327,936.3518,246.0906,943.39,252.98" style="stroke:#181818;stroke-width:1.0;"/></g><!--MD5=[b42e32fdb76c39ed1cb4962b8ce3a941]
link mails to ses--><g id="link_mails_ses"><path d="M955.5,316.03 C955.5,332.66 955.5,353.32 955.5,370.7 " fill="none" id="mails-to-ses" style="stroke:#181818;stroke-width:1.0;"/><polygon fill="#181818" points="955.5,375.98,959.5,366.98,955.5,370.98,951.5,366.98,955.5,375.98" style="stroke:#181818;stroke-width:1.0;"/></g><!--MD5=[1d7e8b7a6c038c4f7776f4d3e9e46888]
link mails to workmail--><g id="link_mails_workmail"><path d="M990.83,316.03 C1010.81,333.3 1035.83,354.93 1056.4,372.7 " fill="none" id="mails-to-workmail" style="stroke:#181818;stroke-width:1.0;"/><polygon fill="#181818" points="1060.18,375.98,1055.9664,367.078,1056.3898,372.719,1050.7488,373.1423,1060.18,375.98" style="stroke:#181818;stroke-width:1.0;"/></g><!--MD5=[b94ad866e3f47a17da8e2568811fc889]
@startuml

component [eu-central-1] <<Region>> as c1
component [eu-west-1] <<Region>> as e1

component [PRO] <<Environment>> as pro

component [CDN] <<Stack>> as cdn
component [mails] <<Stack>> as mails
component [hosting_zones] <<Stack>> as dns

component [aws_acm_certificate] <<Module>> as cert
component [aws_s3_bucket] <<Module>> as s3
component [redirect] <<Module>> as redirect
component [SES] <<Module>> as ses
component [Workmail] <<Module>> as workmail
component [hosting_zone_1] <<Module>> as zone1
component [hosting_zone_2] <<Module>> as zone2

pro - -> c1
c1 - -> cdn
cdn - -> cert
cdn - -> s3
cdn - -> redirect
c1 - -> dns
dns - -> zone1
dns - -> zone2
pro - -> e1
e1 - -> mails
mails - -> ses
mails - -> workmail
@enduml

PlantUML version 1.2022.4(Sat Apr 09 15:29:17 CEST 2022)
(GPL source distribution)
Java Runtime: OpenJDK Runtime Environment
JVM: OpenJDK 64-Bit Server VM
Default Encoding: UTF-8
Language: en
Country: PL
--></g></svg>
