<?xml version="1.0" encoding="UTF-8" standalone="no"?><svg xmlns="http://www.w3.org/2000/svg" xmlns:xlink="http://www.w3.org/1999/xlink" contentStyleType="text/css" height="321px" preserveAspectRatio="none" style="width:1322px;height:321px;background:#FFFFFF;" version="1.1" viewBox="0 0 1322 321" width="1322px" zoomAndPan="magnify"><defs/><g><!--MD5=[f98759e4eb96d6a1d3ce0405f8c1a67e]
entity pro--><g id="elem_pro"><rect fill="#F1F1F1" height="62.9766" rx="2.5" ry="2.5" style="stroke:#181818;stroke-width:0.5;" width="141" x="657" y="7"/><rect fill="#F1F1F1" height="10" style="stroke:#181818;stroke-width:0.5;" width="15" x="778" y="12"/><rect fill="#F1F1F1" height="2" style="stroke:#181818;stroke-width:0.5;" width="4" x="776" y="14"/><rect fill="#F1F1F1" height="2" style="stroke:#181818;stroke-width:0.5;" width="4" x="776" y="18"/><text fill="#000000" font-family="sans-serif" font-size="14" font-style="italic" lengthAdjust="spacing" textLength="101" x="672" y="40.5352">«Environment»</text><text fill="#000000" font-family="sans-serif" font-size="14" lengthAdjust="spacing" textLength="28" x="708.5" y="57.0234">PRO</text></g><!--MD5=[8fb4f905147ca31c25b1e567ee08a5b2]
entity cdn--><g id="elem_cdn"><rect fill="#F1F1F1" height="62.9766" rx="2.5" ry="2.5" style="stroke:#181818;stroke-width:0.5;" width="90" x="323.5" y="130"/><rect fill="#F1F1F1" height="10" style="stroke:#181818;stroke-width:0.5;" width="15" x="393.5" y="135"/><rect fill="#F1F1F1" height="2" style="stroke:#181818;stroke-width:0.5;" width="4" x="391.5" y="137"/><rect fill="#F1F1F1" height="2" style="stroke:#181818;stroke-width:0.5;" width="4" x="391.5" y="141"/><text fill="#000000" font-family="sans-serif" font-size="14" font-style="italic" lengthAdjust="spacing" textLength="50" x="338.5" y="163.5352">«Stack»</text><text fill="#000000" font-family="sans-serif" font-size="14" lengthAdjust="spacing" textLength="30" x="348.5" y="180.0234">CDN</text></g><!--MD5=[f017e3bd359d78c0ae661d83e1b006ab]
entity mails--><g id="elem_mails"><rect fill="#F1F1F1" height="62.9766" rx="2.5" ry="2.5" style="stroke:#181818;stroke-width:0.5;" width="90" x="682.5" y="130"/><rect fill="#F1F1F1" height="10" style="stroke:#181818;stroke-width:0.5;" width="15" x="752.5" y="135"/><rect fill="#F1F1F1" height="2" style="stroke:#181818;stroke-width:0.5;" width="4" x="750.5" y="137"/><rect fill="#F1F1F1" height="2" style="stroke:#181818;stroke-width:0.5;" width="4" x="750.5" y="141"/><text fill="#000000" font-family="sans-serif" font-size="14" font-style="italic" lengthAdjust="spacing" textLength="50" x="697.5" y="163.5352">«Stack»</text><text fill="#000000" font-family="sans-serif" font-size="14" lengthAdjust="spacing" textLength="36" x="704.5" y="180.0234">mails</text></g><!--MD5=[30e382dc68ab04d49d3ef5ad3266e605]
entity dns--><g id="elem_dns"><rect fill="#F1F1F1" height="62.9766" rx="2.5" ry="2.5" style="stroke:#181818;stroke-width:0.5;" width="140" x="987.5" y="130"/><rect fill="#F1F1F1" height="10" style="stroke:#181818;stroke-width:0.5;" width="15" x="1107.5" y="135"/><rect fill="#F1F1F1" height="2" style="stroke:#181818;stroke-width:0.5;" width="4" x="1105.5" y="137"/><rect fill="#F1F1F1" height="2" style="stroke:#181818;stroke-width:0.5;" width="4" x="1105.5" y="141"/><text fill="#000000" font-family="sans-serif" font-size="14" font-style="italic" lengthAdjust="spacing" textLength="50" x="1027.5" y="163.5352">«Stack»</text><text fill="#000000" font-family="sans-serif" font-size="14" lengthAdjust="spacing" textLength="100" x="1002.5" y="180.0234">hosted_zones</text></g><!--MD5=[41cc97cca0fc40f6265874b6ddd0fc3b]
entity cert--><g id="elem_cert"><rect fill="#F1F1F1" height="62.9766" rx="2.5" ry="2.5" style="stroke:#181818;stroke-width:0.5;" width="175" x="7" y="253"/><rect fill="#F1F1F1" height="10" style="stroke:#181818;stroke-width:0.5;" width="15" x="162" y="258"/><rect fill="#F1F1F1" height="2" style="stroke:#181818;stroke-width:0.5;" width="4" x="160" y="260"/><rect fill="#F1F1F1" height="2" style="stroke:#181818;stroke-width:0.5;" width="4" x="160" y="264"/><text fill="#000000" font-family="sans-serif" font-size="14" font-style="italic" lengthAdjust="spacing" textLength="65" x="57" y="286.5352">«Module»</text><text fill="#000000" font-family="sans-serif" font-size="14" lengthAdjust="spacing" textLength="135" x="22" y="303.0234">aws_acm_certificate</text></g><!--MD5=[b165ca7cce796f881c879adda4a6bef9]
entity s3--><g id="elem_s3"><rect fill="#F1F1F1" height="62.9766" rx="2.5" ry="2.5" style="stroke:#181818;stroke-width:0.5;" width="142" x="217.5" y="253"/><rect fill="#F1F1F1" height="10" style="stroke:#181818;stroke-width:0.5;" width="15" x="339.5" y="258"/><rect fill="#F1F1F1" height="2" style="stroke:#181818;stroke-width:0.5;" width="4" x="337.5" y="260"/><rect fill="#F1F1F1" height="2" style="stroke:#181818;stroke-width:0.5;" width="4" x="337.5" y="264"/><text fill="#000000" font-family="sans-serif" font-size="14" font-style="italic" lengthAdjust="spacing" textLength="65" x="251" y="286.5352">«Module»</text><text fill="#000000" font-family="sans-serif" font-size="14" lengthAdjust="spacing" textLength="102" x="232.5" y="303.0234">aws_s3_bucket</text></g><!--MD5=[a33070c51b3a7439b1497cd00aaa8caa]
entity redirect--><g id="elem_redirect"><rect fill="#F1F1F1" height="62.9766" rx="2.5" ry="2.5" style="stroke:#181818;stroke-width:0.5;" width="105" x="395" y="253"/><rect fill="#F1F1F1" height="10" style="stroke:#181818;stroke-width:0.5;" width="15" x="480" y="258"/><rect fill="#F1F1F1" height="2" style="stroke:#181818;stroke-width:0.5;" width="4" x="478" y="260"/><rect fill="#F1F1F1" height="2" style="stroke:#181818;stroke-width:0.5;" width="4" x="478" y="264"/><text fill="#000000" font-family="sans-serif" font-size="14" font-style="italic" lengthAdjust="spacing" textLength="65" x="410" y="286.5352">«Module»</text><text fill="#000000" font-family="sans-serif" font-size="14" lengthAdjust="spacing" textLength="53" x="416" y="303.0234">redirect</text></g><!--MD5=[24ccd555c0247d9c6deb4d9d6b9bd608]
entity ses1--><g id="elem_ses1"><rect fill="#F1F1F1" height="62.9766" rx="2.5" ry="2.5" style="stroke:#181818;stroke-width:0.5;" width="105" x="535" y="253"/><rect fill="#F1F1F1" height="10" style="stroke:#181818;stroke-width:0.5;" width="15" x="620" y="258"/><rect fill="#F1F1F1" height="2" style="stroke:#181818;stroke-width:0.5;" width="4" x="618" y="260"/><rect fill="#F1F1F1" height="2" style="stroke:#181818;stroke-width:0.5;" width="4" x="618" y="264"/><text fill="#000000" font-family="sans-serif" font-size="14" font-style="italic" lengthAdjust="spacing" textLength="65" x="550" y="286.5352">«Module»</text><text fill="#000000" font-family="sans-serif" font-size="14" lengthAdjust="spacing" textLength="37" x="564" y="303.0234">SES 1</text></g><!--MD5=[c7b9f8c1bb7581127f4edc84c3f0b482]
entity ses2--><g id="elem_ses2"><rect fill="#F1F1F1" height="62.9766" rx="2.5" ry="2.5" style="stroke:#181818;stroke-width:0.5;" width="105" x="675" y="253"/><rect fill="#F1F1F1" height="10" style="stroke:#181818;stroke-width:0.5;" width="15" x="760" y="258"/><rect fill="#F1F1F1" height="2" style="stroke:#181818;stroke-width:0.5;" width="4" x="758" y="260"/><rect fill="#F1F1F1" height="2" style="stroke:#181818;stroke-width:0.5;" width="4" x="758" y="264"/><text fill="#000000" font-family="sans-serif" font-size="14" font-style="italic" lengthAdjust="spacing" textLength="65" x="690" y="286.5352">«Module»</text><text fill="#000000" font-family="sans-serif" font-size="14" lengthAdjust="spacing" textLength="37" x="704" y="303.0234">SES 2</text></g><!--MD5=[d112aecbd7ccc75573a6ee2503a173b3]
entity email--><g id="elem_email"><rect fill="#F1F1F1" height="62.9766" rx="2.5" ry="2.5" style="stroke:#181818;stroke-width:0.5;" width="132" x="815.5" y="253"/><rect fill="#F1F1F1" height="10" style="stroke:#181818;stroke-width:0.5;" width="15" x="927.5" y="258"/><rect fill="#F1F1F1" height="2" style="stroke:#181818;stroke-width:0.5;" width="4" x="925.5" y="260"/><rect fill="#F1F1F1" height="2" style="stroke:#181818;stroke-width:0.5;" width="4" x="925.5" y="264"/><text fill="#000000" font-family="sans-serif" font-size="14" font-style="italic" lengthAdjust="spacing" textLength="65" x="844" y="286.5352">«Module»</text><text fill="#000000" font-family="sans-serif" font-size="14" lengthAdjust="spacing" textLength="92" x="830.5" y="303.0234">Email Identity</text></g><!--MD5=[079185c0f47d1c5bc01c349238b78bee]
entity zone1--><g id="elem_zone1"><rect fill="#F1F1F1" height="62.9766" rx="2.5" ry="2.5" style="stroke:#181818;stroke-width:0.5;" width="149" x="983" y="253"/><rect fill="#F1F1F1" height="10" style="stroke:#181818;stroke-width:0.5;" width="15" x="1112" y="258"/><rect fill="#F1F1F1" height="2" style="stroke:#181818;stroke-width:0.5;" width="4" x="1110" y="260"/><rect fill="#F1F1F1" height="2" style="stroke:#181818;stroke-width:0.5;" width="4" x="1110" y="264"/><text fill="#000000" font-family="sans-serif" font-size="14" font-style="italic" lengthAdjust="spacing" textLength="65" x="1020" y="286.5352">«Module»</text><text fill="#000000" font-family="sans-serif" font-size="14" lengthAdjust="spacing" textLength="109" x="998" y="303.0234">hosting_zone_1</text></g><!--MD5=[2696dcc3d7c74d406e74719ea41fd130]
entity zone2--><g id="elem_zone2"><rect fill="#F1F1F1" height="62.9766" rx="2.5" ry="2.5" style="stroke:#181818;stroke-width:0.5;" width="149" x="1167" y="253"/><rect fill="#F1F1F1" height="10" style="stroke:#181818;stroke-width:0.5;" width="15" x="1296" y="258"/><rect fill="#F1F1F1" height="2" style="stroke:#181818;stroke-width:0.5;" width="4" x="1294" y="260"/><rect fill="#F1F1F1" height="2" style="stroke:#181818;stroke-width:0.5;" width="4" x="1294" y="264"/><text fill="#000000" font-family="sans-serif" font-size="14" font-style="italic" lengthAdjust="spacing" textLength="65" x="1204" y="286.5352">«Module»</text><text fill="#000000" font-family="sans-serif" font-size="14" lengthAdjust="spacing" textLength="109" x="1182" y="303.0234">hosting_zone_2</text></g><!--MD5=[596468086e68f61b5dad784f4cb1cf63]
link pro to cdn--><g id="link_pro_cdn"><path d="M656.57,63.41 C586.27,87.1 480.38,122.79 418.47,143.66 " fill="none" id="pro-to-cdn" style="stroke:#181818;stroke-width:1.0;"/><polygon fill="#181818" points="413.72,145.26,423.5264,146.1733,418.4577,143.6617,420.9692,138.593,413.72,145.26" style="stroke:#181818;stroke-width:1.0;"/></g><!--MD5=[1a5a9148150694397276d3833ef1607a]
link cdn to cert--><g id="link_cdn_cert"><path d="M323.25,182.48 C281.21,201.05 217.84,229.03 168.45,250.84 " fill="none" id="cdn-to-cert" style="stroke:#181818;stroke-width:1.0;"/><polygon fill="#181818" points="163.72,252.93,173.5689,252.9357,168.2902,250.902,170.324,245.6233,163.72,252.93" style="stroke:#181818;stroke-width:1.0;"/></g><!--MD5=[c2e49395b2702fc3c3a43a79eb913f06]
link cdn to s3--><g id="link_cdn_s3"><path d="M348.31,193.03 C337.13,209.94 323.19,231.03 311.58,248.59 " fill="none" id="cdn-to-s3" style="stroke:#181818;stroke-width:1.0;"/><polygon fill="#181818" points="308.68,252.98,316.9796,247.6774,311.437,248.8088,310.3056,243.2662,308.68,252.98" style="stroke:#181818;stroke-width:1.0;"/></g><!--MD5=[5d3939893a42967e9cc0a9e52881fb42]
link cdn to redirect--><g id="link_cdn_redirect"><path d="M388.44,193.03 C399.48,209.94 413.24,231.03 424.71,248.59 " fill="none" id="cdn-to-redirect" style="stroke:#181818;stroke-width:1.0;"/><polygon fill="#181818" points="427.57,252.98,425.9828,243.2599,424.8295,248.7979,419.2915,247.6446,427.57,252.98" style="stroke:#181818;stroke-width:1.0;"/></g><!--MD5=[fbb9c3a427410be6da99ce7a7040e12d]
link pro to dns--><g id="link_pro_dns"><path d="M798.29,65.46 C852.52,85.34 927.18,112.71 982.44,132.98 " fill="none" id="pro-to-dns" style="stroke:#181818;stroke-width:1.0;"/><polygon fill="#181818" points="987.39,134.79,980.3239,127.9293,982.6973,133.0641,977.5625,135.4376,987.39,134.79" style="stroke:#181818;stroke-width:1.0;"/></g><!--MD5=[a6e1fed94b721f36180ca2d4c198bfdd]
link dns to zone1--><g id="link_dns_zone1"><path d="M1057.5,193.03 C1057.5,209.66 1057.5,230.32 1057.5,247.7 " fill="none" id="dns-to-zone1" style="stroke:#181818;stroke-width:1.0;"/><polygon fill="#181818" points="1057.5,252.98,1061.5,243.98,1057.5,247.98,1053.5,243.98,1057.5,252.98" style="stroke:#181818;stroke-width:1.0;"/></g><!--MD5=[f494149bc6b9424ddb659facd8e47303]
link dns to zone2--><g id="link_dns_zone2"><path d="M1103.93,193.03 C1130.41,210.44 1163.62,232.29 1190.78,250.15 " fill="none" id="dns-to-zone2" style="stroke:#181818;stroke-width:1.0;"/><polygon fill="#181818" points="1195.08,252.98,1189.7774,244.6804,1190.9088,250.223,1185.3662,251.3544,1195.08,252.98" style="stroke:#181818;stroke-width:1.0;"/></g><!--MD5=[542e7f4aa5c68ea0cf8d6d6e1c416d60]
link pro to mails--><g id="link_pro_mails"><path d="M727.5,70.03 C727.5,86.66 727.5,107.32 727.5,124.7 " fill="none" id="pro-to-mails" style="stroke:#181818;stroke-width:1.0;"/><polygon fill="#181818" points="727.5,129.98,731.5,120.98,727.5,124.98,723.5,120.98,727.5,129.98" style="stroke:#181818;stroke-width:1.0;"/></g><!--MD5=[1cfce2aaba948b337bc7cc4e0b075e68]
link mails to ses1--><g id="link_mails_ses1"><path d="M692.17,193.03 C672.19,210.3 647.17,231.93 626.6,249.7 " fill="none" id="mails-to-ses1" style="stroke:#181818;stroke-width:1.0;"/><polygon fill="#181818" points="622.82,252.98,632.2512,250.1423,626.6102,249.719,627.0336,244.078,622.82,252.98" style="stroke:#181818;stroke-width:1.0;"/></g><!--MD5=[199826850861a368c9e17e9f9ebfe9ac]
link mails to ses2--><g id="link_mails_ses2"><path d="M727.5,193.03 C727.5,209.66 727.5,230.32 727.5,247.7 " fill="none" id="mails-to-ses2" style="stroke:#181818;stroke-width:1.0;"/><polygon fill="#181818" points="727.5,252.98,731.5,243.98,727.5,247.98,723.5,243.98,727.5,252.98" style="stroke:#181818;stroke-width:1.0;"/></g><!--MD5=[439eeaee465fc5c0fca26cd473b72cf2]
link mails to email--><g id="link_mails_email"><path d="M766.36,193.03 C788.34,210.3 815.86,231.93 838.49,249.7 " fill="none" id="mails-to-email" style="stroke:#181818;stroke-width:1.0;"/><polygon fill="#181818" points="842.65,252.98,838.043,244.2751,838.7179,249.8915,833.1015,250.5664,842.65,252.98" style="stroke:#181818;stroke-width:1.0;"/></g><!--MD5=[829f54262a7c36a1d2c026851fa3cb62]
@startuml

component [PRO] <<Environment>> as pro

component [CDN] <<Stack>> as cdn
component [mails] <<Stack>> as mails
component [hosted_zones] <<Stack>> as dns

component [aws_acm_certificate] <<Module>> as cert
component [aws_s3_bucket] <<Module>> as s3
component [redirect] <<Module>> as redirect
component [SES 1] <<Module>> as ses1
component [SES 2] <<Module>> as ses2
component [Email Identity] <<Module>> as email
component [hosting_zone_1] <<Module>> as zone1
component [hosting_zone_2] <<Module>> as zone2

pro - -> cdn
cdn - -> cert
cdn - -> s3
cdn - -> redirect
pro - -> dns
dns - -> zone1
dns - -> zone2

pro - -> mails
mails - -> ses1
mails - -> ses2
mails - -> email
@enduml

PlantUML version 1.2022.4(Sat Apr 09 15:29:17 CEST 2022)
(GPL source distribution)
Java Runtime: OpenJDK Runtime Environment
JVM: OpenJDK 64-Bit Server VM
Default Encoding: UTF-8
Language: en
Country: PL
--></g></svg>
